<?xml version="1.0" encoding="utf-8"?>
<!-- Generator: Adobe Illustrator 15.1.0, SVG Export Plug-In . SVG Version: 6.00 Build 0)  -->
<!DOCTYPE svg PUBLIC "-//W3C//DTD SVG 1.1//EN" "http://www.w3.org/Graphics/SVG/1.1/DTD/svg11.dtd">
<svg version="1.1" xmlns="http://www.w3.org/2000/svg" xmlns:xlink="http://www.w3.org/1999/xlink" x="0px" y="0px" width="400px"
	 height="400px" viewBox="0 0 400 400" enable-background="new 0 0 400 400" xml:space="preserve">
<g id="Layer_1">
</g>
<g id="Layer_2">
	<g>
		<defs>
			<circle id="SVGID_1_" cx="199.75" cy="199.75" r="199.75"/>
		</defs>
		<clipPath id="SVGID_2_">
			<use xlink:href="#SVGID_1_"  overflow="visible"/>
		</clipPath>
		<g clip-path="url(#SVGID_2_)">
			<g>
				<path d="M79.27,382.722c11.708-0.76,20.582-12.463,26.718-21.293c8.005-11.521,12.039-24.306,15.292-37.794
					c0.864-3.585,2.588-7.193,3.164-10.828c0.564-3.563,0.944-7.124,1.6-10.676c1.438-7.78,2.345-15.547,2.715-23.453
					c0.699-14.928-1.131-28.99-4.245-43.566c-1.494-6.994-3.177-14.023-5.028-20.931c-1.77-6.602-5.113-12.735-8.04-18.872
					c-6.389-13.393-7.553-26.791-5.658-41.439c1.884-14.567,7.537-29.078,16.628-40.657c8.215-10.463,19.709-17.872,31.707-23.285
					c13.304-6.003,28.203-9.495,42.647-11.206c7.057-0.835,15.053-2.065,22.127-0.65c7.122,1.424,14.249,2.82,21.285,4.634
					c12.012,3.097,23.549,7.67,33.602,15.039c12.263,8.989,19.053,21.101,24.91,34.797c2.847,6.658,4.983,12.852,5.363,20.151
					c0.176,3.371-1.025,6.755-1.329,10.099c-0.346,3.8-0.556,7.55-1.21,11.318c-2.372,13.659-8.801,26.076-13.3,39.008
					c-2.09,6.005-4.587,11.228-5.661,17.575c-0.502,2.967,0.103,6.226,0.541,9.154c0.606,4.051,0.925,8.103,1.292,12.179
					c0.619,6.885,2.484,13.652,3.463,20.5c1.118,7.83,3.447,15.717,5.297,23.412c1.856,7.725,3.483,15.497,5.509,23.182
					c2.09,7.932,5.231,15.371,8.461,22.889c3.372,7.847,6.461,15.811,10.128,23.527c1.32,2.778,2.487,6.217,4.107,8.769
					c1.335,2.102,2.803,4.161,3.748,6.472c1.932-0.518,3.863-1.035,5.795-1.553c-0.373-0.896-0.581-1.296-1.252-2.028
					c-1.864-2.033-7.342,0.371-5.291,2.609c0.249,0.323,0.499,0.647,0.748,0.972c1.122,2.695,6.872,1.08,5.795-1.553
					c-1.618-3.955-3.998-7.62-5.908-11.452c-3.686-7.394-6.858-14.949-10.092-22.548c-2.697-6.339-5.508-12.655-7.871-19.128
					c-2.675-7.324-4.286-15.094-6.02-22.682c-1.646-7.211-3.333-14.411-4.967-21.625c-1.725-7.617-2.705-15.357-4.494-22.936
					c-1.593-6.747-1.596-13.729-2.652-20.559c-1.323-8.55,1.182-15.165,4.392-22.91c4.944-11.934,9.691-24.166,13.004-36.688
					c1.695-6.413,1.856-12.855,2.654-19.389c0.88-7.202,1.079-13.287-1.195-20.348c-4.174-12.952-10.722-26.271-20.053-36.222
					c-8.044-8.58-18.096-14.749-28.928-19.157c-11.524-4.69-23.889-7.097-36.039-9.527c-13.729-2.746-28.991,0.17-42.489,3.128
					c-24.553,5.382-49.107,15.949-64.57,36.592c-15.393,20.549-22.199,53.111-12.577,77.352c2.324,5.853,5.402,11.388,7.911,17.162
					c2.964,6.819,4.307,14.176,6.074,21.364c3.714,15.115,6.217,30.107,5.916,45.689c-0.383,19.838-4.667,39.244-10.003,58.253
					c-2.624,9.346-6.548,17.878-11.893,25.978c-2.469,3.742-5.025,7.064-8.22,10.219c-3.73,3.683-7.564,8.126-13.147,8.488
					C76.387,378.495,75.327,382.978,79.27,382.722L79.27,382.722z"/>
			</g>
		</g>
		<g clip-path="url(#SVGID_2_)">
			<path fill="#F26522" d="M173.527,229.445c-5.78,8.776,2.33,20.008,9.693,25.904c10.583,8.474,25.711,5.472,37.992,5.512
				c8.312,0.026,15.981,3.029,23.431,6.446c13.683,6.277,27.783,11.359,42.216,15.634c13.732,4.067,29.148,6.203,42.286-1.063
				c17.54-9.701,15.911-32.291,9.329-48.472c-5.87-14.427-25.136-21.669-23.443-38.748c0.932-9.399-6.722-17.45-15.312-9.918
				c-9.272,8.13-16.148,18.42-25.584,26.546c-2.897,2.495-5.105,4.516-7.86,6.408c-2.898,2.495-6.057,3.656-8.812,5.549
				c-1.379,0.945-2.756,1.892-3.99,2.235c-1.924,0.817-3.705,1.031-5.629,1.848c-1.923,0.817-3.703,1.031-5.484,1.247
				c-2.471,0.688-4.394,1.504-6.721,1.589c-7.266,1.46-14.389,2.317-21.227,1.97c-3.419-0.174-7.385-0.477-10.803-0.65
				c-2.729-0.647-5.604-0.691-7.93-0.605c-5.2,0.04-9.946-4.267-15.146-4.226c-0.688,0.474-1.781,0.215-2.873-0.044
				C175.879,226.821,174.359,228.369,173.527,229.445c-0.688,0.473-2.066,1.419-1.117,2.28"/>
			<g>
				<path d="M172.575,229.618c-6,10.395,3.661,22.194,12.158,27.758c9.489,6.214,22.412,4.24,33.078,3.908
					c16.027-0.499,30.418,8.756,44.99,14.266c12.64,4.779,26.237,9.981,39.796,11.19c10.746,0.958,21.765-0.589,30.682-7.053
					c7.745-5.614,10.622-15.092,10.78-24.267c0.174-10.075-2.801-21.346-8.876-29.445c-5.935-7.914-14.762-13.642-18.271-23.232
					c-2.144-5.856,0.973-13.052-3.484-18.132c-3.313-3.776-7.449-3.8-11.723-1.796c-3.087,1.447-5.589,4.479-7.932,6.854
					c-3.69,3.74-7.073,7.785-10.568,11.706c-6.571,7.368-14.107,14.788-22.768,19.654c-4.244,2.386-8.329,4.411-12.926,6.088
					c-4.159,1.517-9.172,2.209-13.504,3.05c-11.302,2.194-21.752,1.098-33.071,0.41c-5.206-0.316-9.077-0.977-13.957-2.99
					c-3.054-1.26-5.485-0.781-8.525-1.349c-2.491-0.466-7.768,3.439-7.01,5.747c0.144,0.439,2.06-0.128,1.932-0.518
					c-0.881-2.685,4.55-3.992,5.689-4.216c3.669-0.722,7.018,1.532,10.282,2.732c5.874,2.159,12.823,1.813,19.034,2.211
					c12.561,0.805,24.552-0.723,36.744-3.729c10.835-2.673,20.12-8.802,28.485-16.047c5.376-4.656,10.133-9.81,14.829-15.139
					c4.431-5.026,14.089-18.7,21.594-13.603c5.013,3.405,3.726,9.975,3.996,15.015c0.272,5.081,3.08,9.594,6.161,13.454
					c6.396,8.014,14.488,13.902,18.201,23.817c3.776,10.082,5.258,21.698,1.762,32.049c-5.74,16.992-25.64,19.789-41.121,17.279
					c-13.522-2.192-26.967-7.438-39.661-12.417c-11.752-4.609-22.94-11.356-35.761-12.35c-11.68-0.905-23.254,2.336-34.501-2.443
					c-9.846-4.184-20.794-18.13-14.63-28.809C174.614,229.039,172.852,229.139,172.575,229.618L172.575,229.618z"/>
			</g>
		</g>
		<g clip-path="url(#SVGID_2_)">
			<g>
				<path d="M171.034,235.259c0,0.167,0,0.333,0,0.5c0.533-0.21,1.065-0.42,1.599-0.63c-9.807,0-19.608-1.941-29.21-3.861
					c-5.456-1.092-11.231-1.769-16.456-3.713c-1.07-0.398-7.76-2.228-7.548-4.203c-0.385,0.195-0.77,0.39-1.154,0.585
					c0.183-0.037,0.365-0.074,0.547-0.111c0.735-0.148,1.733-0.926,0.376-0.65c-0.182,0.037-0.364,0.074-0.546,0.11
					c-0.279,0.057-1.113,0.205-1.154,0.584c-0.153,1.433,4.496,3.353,5.379,3.605c5.685,1.629,11.26,2.968,17.086,4.133
					c10.416,2.083,20.781,4.264,31.415,4.264c0.312,0,1.599-0.163,1.599-0.63c0-0.167,0-0.333,0-0.5
					C172.966,234.479,171.034,234.741,171.034,235.259L171.034,235.259z"/>
			</g>
		</g>
		<g clip-path="url(#SVGID_2_)">
			<g>
				<path d="M117.466,224.241c-0.422-1.372-1.797-2.185-2.892-3.005c-2.063-1.548-4.035-3.043-6.508-3.855
					c-3.566-1.173-7.786-1.017-9.671,2.594c-3.567,6.832,15.545,6.667,18.521,5.052c0.211-0.114,0.56-0.324,0.56-0.612
					c0-0.166,0-0.333,0-0.5c0-0.967-1.951-0.637-1.951,0.172c0,1.335-11.106,0.059-12.789-0.299
					c-2.474-0.525-4.855-4.817,0.186-5.679c2.265-0.387,4.924,0.7,6.828,1.802c1.472,0.852,5.24,3.078,5.785,4.849
					C115.792,225.597,117.72,225.066,117.466,224.241L117.466,224.241z"/>
			</g>
		</g>
		<g clip-path="url(#SVGID_2_)">
			<g>
				<path d="M116.59,223.808c-0.029,0-1.21-0.635-2.189-0.362c-2.578,0.718-5.159,1.719-7.647,2.704
					c-4.031,1.596-10.991,8.591-8.232,13.431c2.688,4.717,6.962,5.598,11.3,2.755c6.301-4.128,7.419-12.191,9.599-18.732
					c0.351-1.051-1.578-1-1.843-0.205c-1.162,3.486-1.939,7.138-3.337,10.527c-0.964,2.34-2.364,4.277-4.054,6.125
					c-3.521,3.851-8.512,2.454-10.115-1.981c-0.893-2.47,1.925-5.999,3.233-7.794c1.638-2.248,5.148-3.701,7.803-4.211
					c0.874-0.168,3.403-1.898,4.006-1.142c0.297,0.373,0.88,0.271,1.295,0.271C117.503,225.192,117.902,223.808,116.59,223.808
					L116.59,223.808z"/>
			</g>
		</g>
		<g clip-path="url(#SVGID_2_)">
			<g>
				<path d="M178.125,161.934c0,0.5,0,1,0,1.5c-0.084,0.604,0.061,1.147,0.437,1.628c0.432,0.499,0.967,0.838,1.604,1.019
					c0.824,0.355,1.812,0.288,2.675,0.281c0.937-0.007,2.172-0.432,3.009-0.813c1.027-0.468,2.122-1.226,2.807-2.135
					c0.569-0.755,1.264-1.689,1.258-2.693c-0.005-0.876-0.055-1.268-0.573-2.018c-0.45-0.652-1.306-1.019-2.006-1.283
					c-1.115-0.421-2.537-0.282-3.656,0.018c-1.217,0.326-2.284,0.921-3.174,1.812c-0.167,0.167-0.333,0.333-0.5,0.5
					c-0.638,0.638-1.078,1.635-0.834,2.544c0.336,1.255,1.89,2.003,3.101,2.003c0.167,0,0.333,0,0.5,0
					c1.353,0,2.553-0.108,3.804-0.688c0.999-0.463,1.985-1.183,2.509-2.181c0.423-0.804,0.438-1.755-0.146-2.49
					c-0.595-0.749-1.769-1.235-2.71-1.235c-0.167,0-0.333,0-0.5,0c0.755,1.516,1.511,3.032,2.266,4.548
					c0.167-0.167,0.333-0.333,0.5-0.5c-2.276,0.61-4.553,1.22-6.83,1.83c0.029,0.011,0.059,0.022,0.088,0.033
					c-0.307-0.139-0.614-0.278-0.921-0.417c0.077,0.037,0.144,0.076,0.212,0.126c-0.228-0.2-0.456-0.401-0.683-0.601
					c0.074,0.068,0.127,0.135,0.175,0.224c-0.13-0.256-0.261-0.512-0.391-0.768c0.037,0.09,0.056,0.174,0.064,0.271
					c-0.016-0.287-0.031-0.573-0.046-0.86c0.001,0.161-0.029,0.307-0.079,0.459c0.097-0.287,0.194-0.575,0.291-0.862
					c-0.077,0.198-0.178,0.376-0.299,0.55c0.197-0.274,0.393-0.548,0.589-0.822c-0.133,0.177-0.28,0.336-0.446,0.483
					c0.283-0.247,0.566-0.494,0.849-0.741c-0.116,0.095-0.235,0.18-0.366,0.255c0.357-0.206,0.714-0.412,1.071-0.618
					c-0.074,0.038-0.147,0.072-0.224,0.102c0.418-0.151,0.836-0.302,1.254-0.453c-0.048,0.017-0.098,0.031-0.147,0.042
					c0.438-0.079,0.875-0.157,1.313-0.235c-0.073,0.013-0.141,0.02-0.214,0.02c0.412,0,0.824,0,1.237,0
					c-0.046-0.001-0.091-0.008-0.136-0.019c0.369,0.072,0.737,0.145,1.106,0.217c-0.044-0.011-0.086-0.026-0.127-0.046
					c0.68,0.882,1.36,1.765,2.041,2.647c0-0.5,0-1,0-1.5c0-0.976-0.253-1.682-1.12-2.229c-0.953-0.602-2.167-0.732-3.263-0.634
					c-1.288,0.115-2.581,0.555-3.639,1.306C179.161,160.001,178.125,160.976,178.125,161.934L178.125,161.934z"/>
			</g>
		</g>
		<g clip-path="url(#SVGID_2_)">
			<g>
				<path d="M246.489,148.693c-0.853,0.902-1.8,2.43-1.87,3.72c-0.133,2.426,2.461,3.068,4.409,2.962
					c1.653-0.09,3.126-0.758,4.519-1.594c1.087-0.652,2.185-1.884,2.334-3.193c0.211-1.848-1.595-2.792-3.17-2.954
					c-2.109-0.217-4.233,0.572-5.722,2.06c-0.333,0.333-0.666,0.667-1,1c2.964,0.298,5.928,0.597,8.892,0.895c0-0.333,0-0.667,0-1
					c0-0.992-0.265-1.725-1.136-2.291c-0.951-0.618-2.168-0.765-3.273-0.671c-1.289,0.109-2.584,0.553-3.637,1.314
					c-0.706,0.511-1.716,1.499-1.716,2.473c0,0.333,0,0.667,0,1c-0.081,0.619,0.068,1.175,0.447,1.671
					c0.641,0.821,1.729,1.181,2.723,1.283c2.109,0.217,4.233-0.572,5.722-2.06c0.333-0.333,0.666-0.667,1-1
					c-2.964-0.298-5.928-0.597-8.892-0.895c-0.004,0.029-0.007,0.059-0.01,0.088c0.095-0.293,0.19-0.587,0.285-0.881
					c-0.015,0.063-0.04,0.12-0.075,0.174c0.195-0.279,0.39-0.559,0.585-0.838c-0.067,0.093-0.138,0.168-0.223,0.246
					c0.282-0.251,0.563-0.502,0.846-0.753c-0.101,0.079-0.201,0.147-0.311,0.213c0.356-0.209,0.713-0.417,1.069-0.626
					c-0.115,0.061-0.229,0.114-0.35,0.163c0.418-0.152,0.836-0.304,1.254-0.456c-0.112,0.039-0.222,0.071-0.338,0.097
					c0.438-0.077,0.876-0.155,1.314-0.232c-0.064,0.013-0.13,0.02-0.195,0.02c1.47,0.987,2.939,1.975,4.409,2.962
					c0.008-0.146,0.037-0.281,0.076-0.423c-0.095,0.294-0.19,0.587-0.285,0.881c0.137-0.414,0.335-0.793,0.577-1.154
					c-0.195,0.28-0.39,0.559-0.585,0.838c0.107-0.149,0.22-0.289,0.347-0.423c0.637-0.673,1.069-1.666,0.819-2.601
					c-0.256-0.954-1.121-1.554-2.011-1.843C250.999,146.106,248.146,146.941,246.489,148.693L246.489,148.693z"/>
			</g>
		</g>
		<g clip-path="url(#SVGID_2_)">
			<g>
				<path d="M164.128,86.061c4.524,0,0.998-5.46-0.232-7.442c-5.568-8.972-11.977-16.247-19.984-23.12
					c-6.593-5.659-14.201-8.114-22.221-10.998c-5.952-2.14-12.571-3.238-18.576-0.413c0.451,0.098,0.901,0.196,1.352,0.294
					c0.081-3.607,6.83-7.609,9.136-9.083c5.012-3.203,11.036-4.202,16.807-2.936c3.994,0.876,7.242,3.663,10.856,5.379
					c3.961,1.88,7.851,3.786,10.855,7.115c5.702,6.319,9.632,12.733,11.535,21.165c0.758,3.36,1.157,6.802,1.379,10.236
					c0.037,0.57,1.239,9.52,0.732,9.267c-0.578-0.29-2.35,0.541-1.533,0.949c6.38,3.19,2.727-11.375,2.482-13.296
					c-0.747-5.875-1.205-12.253-4.507-17.311c-1.799-2.755-2.353-5.334-4.672-7.79c-1.853-1.961-3.601-4.182-5.64-5.96
					c-4.174-3.639-9.667-5.592-14.418-8.338c-4.182-2.417-8.57-3.341-13.35-3.033c-4.841,0.313-9.211,2.343-13.227,4.91
					c-2.66,1.7-8.289,5.398-8.368,8.96c-0.014,0.631,0.998,0.461,1.352,0.294c6.704-3.155,12.603-0.016,19.026,1.624
					c6.453,1.647,12.735,4.603,17.993,8.711c5.428,4.241,10.403,9.13,14.781,14.449c2.09,2.54,3.777,5.418,5.502,8.209
					c0.488,0.79,3.275,7.035,3.685,7.035C164.133,84.939,162.821,86.061,164.128,86.061L164.128,86.061z"/>
			</g>
		</g>
		<g clip-path="url(#SVGID_2_)">
			<g>
				<path d="M166.967,82.883c0.51-2.987,1.585-5.628,2.935-8.354c1.291-2.609,1.528-6.766,2.065-9.646
					c1.128-6.04-0.507-12.021-1.516-17.976c-1.113-6.57-3.05-13.39-6.463-19.167c-1.538-2.602-3.308-4.839-5.444-6.974
					c-1.49-1.49-4.025-2.451-0.588-3.513c7.661-2.366,16.886,2.406,22.641,7.08c6.173,5.014,10.261,11.988,9.979,20.061
					c-0.268,7.681-5.13,14.607-9.057,20.907c-2.032,3.259-4.38,6.509-6.945,9.363c-2.131,2.372-4.627,6.304-7.177,8.037
					c0.523,0.014,1.046,0.027,1.569,0.041c-0.087-0.697-0.063-0.544-0.57-1.124c-0.454-0.518-2.302,0.181-1.792,0.765
					c0.144,0.292,0.287,0.584,0.43,0.876c0.073,0.587,1.316,0.212,1.569,0.041c3.411-2.318,5.874-6.457,8.612-9.505
					c3.414-3.799,6.168-8.402,8.73-12.798c5.136-8.812,8.943-17.59,4.46-27.589c-3.657-8.156-12.221-14.018-20.504-16.568
					c-2.702-0.832-15.944-3.068-16.368,2.278c-0.012,0.151,0.039,0.302,0.2,0.358c4.582,1.604,7.944,7.732,9.801,11.784
					c2.636,5.752,4.218,11.637,5.273,17.867c1.014,5.986,2.068,11.479,0.938,17.528c-1.062,5.683-3.75,10.825-4.713,16.463
					C164.901,83.89,166.852,83.559,166.967,82.883L166.967,82.883z"/>
			</g>
		</g>
	</g>
</g>
<g id="Layer_3">
</g>
</svg>
