<?xml version="1.0" encoding="utf-8"?>
<!-- Generator: Adobe Illustrator 15.1.0, SVG Export Plug-In . SVG Version: 6.00 Build 0)  -->
<!DOCTYPE svg PUBLIC "-//W3C//DTD SVG 1.1//EN" "http://www.w3.org/Graphics/SVG/1.1/DTD/svg11.dtd">
<svg version="1.1" id="Layer_1" xmlns="http://www.w3.org/2000/svg" xmlns:xlink="http://www.w3.org/1999/xlink" x="0px" y="0px"
	 width="200px" height="200px" viewBox="0 0 200 200" enable-background="new 0 0 200 200" xml:space="preserve">
<path fill="#FFFFFF" d="M100.039,55.078c-24.844,0-44.883,20.039-44.883,44.883s20.039,44.883,44.883,44.883
	s44.883-20.039,44.883-44.883S124.883,55.078,100.039,55.078z M100.039,129.141c-16.055,0-29.18-13.086-29.18-29.18
	s13.086-29.18,29.18-29.18s29.18,13.086,29.18,29.18S116.094,129.141,100.039,129.141z M157.227,53.242
	c0,5.82-4.688,10.469-10.469,10.469c-5.82,0-10.469-4.688-10.469-10.469s4.688-10.469,10.469-10.469S157.227,47.461,157.227,53.242z
	 M186.953,63.867c-0.664-14.023-3.867-26.445-14.141-36.68c-10.234-10.234-22.656-13.438-36.68-14.141
	c-14.453-0.82-57.773-0.82-72.227,0c-13.984,0.664-26.406,3.867-36.68,14.102s-13.438,22.656-14.141,36.68
	c-0.82,14.453-0.82,57.773,0,72.227c0.664,14.023,3.867,26.445,14.141,36.68s22.656,13.438,36.68,14.141
	c14.453,0.82,57.773,0.82,72.227,0c14.023-0.664,26.445-3.867,36.68-14.141c10.234-10.234,13.438-22.656,14.141-36.68
	C187.773,121.602,187.773,78.32,186.953,63.867z M168.281,151.563c-3.047,7.656-8.945,13.555-16.641,16.641
	c-11.523,4.57-38.867,3.516-51.602,3.516s-40.117,1.016-51.602-3.516c-7.656-3.047-13.555-8.945-16.641-16.641
	c-4.57-11.523-3.516-38.867-3.516-51.602s-1.016-40.117,3.516-51.602c3.047-7.656,8.945-13.555,16.641-16.641
	c11.523-4.57,38.867-3.516,51.602-3.516s40.117-1.016,51.602,3.516c7.656,3.047,13.555,8.945,16.641,16.641
	c4.57,11.523,3.516,38.867,3.516,51.602S172.852,140.078,168.281,151.563z"/>
</svg>
