<?xml version="1.0" encoding="utf-8"?>
<!-- Generator: Adobe Illustrator 15.1.0, SVG Export Plug-In . SVG Version: 6.00 Build 0)  -->
<!DOCTYPE svg PUBLIC "-//W3C//DTD SVG 1.1//EN" "http://www.w3.org/Graphics/SVG/1.1/DTD/svg11.dtd">
<svg version="1.1" xmlns="http://www.w3.org/2000/svg" xmlns:xlink="http://www.w3.org/1999/xlink" x="0px" y="0px" width="500px"
	 height="100px" viewBox="0 0 500 100" enable-background="new 0 0 500 100" xml:space="preserve">
<g id="Layer_2" display="none">
	<rect x="-0.043" y="-0.043" display="inline" fill="none" width="100" height="100"/>
	<rect x="99.957" y="-0.043" display="inline" fill="none" width="100" height="100"/>
	<rect x="200" y="-0.043" display="inline" fill="none" width="100" height="100"/>
	<rect x="300" y="-0.043" display="inline" fill="none" width="100" height="100"/>
	<rect x="400" y="-0.043" display="inline" fill="none" width="100" height="100"/>
</g>
<g id="Layer_1">
	<polygon fill="#D8D8D8" points="49.957,15.891 60.094,37.488 82.761,40.952 66.359,57.762 70.231,81.501 49.957,70.292 
		29.682,81.501 33.554,57.762 17.151,40.952 39.819,37.488 	"/>
	<polygon fill="#D8D8D8" points="149.957,15.891 160.094,37.488 182.761,40.952 166.359,57.762 170.231,81.501 149.957,70.292 
		129.682,81.501 133.554,57.762 117.151,40.952 139.819,37.488 	"/>
	<polygon fill="#D8D8D8" points="250,15.891 260.138,37.488 282.805,40.952 266.402,57.762 270.274,81.501 250,70.292 
		229.726,81.501 233.598,57.762 217.195,40.952 239.862,37.488 	"/>
	<polygon fill="#D8D8D8" points="350,15.891 360.138,37.488 382.805,40.952 366.402,57.762 370.275,81.501 350,70.292 
		329.727,81.501 333.598,57.762 317.195,40.952 339.862,37.488 	"/>
	<polygon fill="#D8D8D8" points="450,15.891 460.138,37.488 482.805,40.952 466.402,57.762 470.275,81.501 450,70.292 
		429.727,81.501 433.598,57.762 417.195,40.952 439.862,37.488 	"/>
</g>
<g id="Layer_3" display="none">
	<polygon display="inline" fill="#FEDE13" points="49.978,15.891 60.116,37.488 82.783,40.952 66.38,57.762 70.252,81.501 
		49.978,70.292 29.704,81.501 33.575,57.762 17.173,40.952 39.84,37.488 	"/>
	<polygon display="inline" fill="#FEDE13" points="149.978,15.891 160.116,37.488 182.783,40.952 166.38,57.762 170.252,81.501 
		149.978,70.292 129.704,81.501 133.575,57.762 117.173,40.952 139.84,37.488 	"/>
	<polygon display="inline" fill="#FEDE13" points="250.021,15.891 260.159,37.488 282.826,40.952 266.424,57.762 270.296,81.501 
		250.021,70.292 229.747,81.501 233.619,57.762 217.216,40.952 239.884,37.488 	"/>
	<polygon display="inline" fill="#FEDE13" points="350.021,15.891 360.159,37.488 382.826,40.952 366.424,57.762 370.297,81.501 
		350.021,70.292 329.748,81.501 333.619,57.762 317.217,40.952 339.884,37.488 	"/>
	<polygon display="inline" fill="#FEDE13" points="450.021,15.891 460.159,37.488 482.826,40.952 466.424,57.762 470.297,81.501 
		450.021,70.292 429.748,81.501 433.619,57.762 417.217,40.952 439.884,37.488 	"/>
</g>
</svg>
